<svg xmlns="http://www.w3.org/2000/svg" xmlns:xlink="http://www.w3.org/1999/xlink" viewBox="0 0 196.05 108.34"><defs><style>.cls-1{fill:url(#Dégradé_sans_nom_24);}</style><radialGradient id="Dégradé_sans_nom_24" cx="13.64" cy="83.78" r="215.39" gradientUnits="userSpaceOnUse"><stop offset="0.07" stop-color="#ff900a"/><stop offset="0.38" stop-color="#ff8c0d"/><stop offset="0.69" stop-color="#ff8015"/><stop offset="1" stop-color="#ff6c22"/><stop offset="1" stop-color="#ff6c22"/></radialGradient></defs><title>Orange Next@Ai</title><g id="Calque_2" data-name="Calque 2"><g id="Calque_1-2" data-name="Calque 1"><path class="cls-1" d="M23.52,12.18c.08,5.42.08,11.46.05,17.11q-1.77-4.18-3.83-8.23a24.79,24.79,0,0,0-2-3.14L17.15,17c-4-6-8.34-5.59-10-5.15-3.71,1-6.36,4.86-6.75,9.9C-.35,31.22.11,40.65.6,50.64l0,.45,6.91-.34,0-.45c-.48-9.76-.93-19-.23-28,.2-2.55,1.26-3.64,1.6-3.73s1.23.38,2.52,2.3l.7,1a21,21,0,0,1,1.47,2.32,127.43,127.43,0,0,1,9.34,24.33,3.71,3.71,0,0,0,3.6,2.78,3.59,3.59,0,0,0,.47,0,3.71,3.71,0,0,0,3.29-3.65c.12-6.4.36-22.69.17-35.54Z"/><path class="cls-1" d="M95.61,6.92c-.65,12.87-.61,32,.13,44l6.91-.42c-.73-11.92-.77-30.94-.11-43.58,12.83,0,25,.21,30.64.52l.38-6.91c-12.63-.7-57.72-.75-70.69.12l.46,6.9C69.32,7.15,82.25,7,95.61,6.92Z"/><path class="cls-1" d="M133,24.57c.12-2.23.43-8.18-4.12-11.17a9.9,9.9,0,0,0-4.29-1.48c-5.46-.68-11.22,2.08-14.65,7-2.58,3.72-3.84,8.35-3.88,14.16a25.59,25.59,0,0,0,1.16,8.41,14.48,14.48,0,0,0,3.8,6.13A13.26,13.26,0,0,0,120,51a13.93,13.93,0,0,0,7.67-2.24c3.24-2.16,6.85-6.75,5.62-16.35L132.7,28l-4.13,1.62a26.71,26.71,0,0,1-8.57,1.8l.3,6.91a34.2,34.2,0,0,0,6.24-.85c-.23,2.6-1.14,4.45-2.74,5.5a7,7,0,0,1-8.12-.39,7.7,7.7,0,0,1-1.94-3.25,18.71,18.71,0,0,1-.81-6.18c0-4.37.89-7.73,2.65-10.26,1.92-2.77,5.27-4.47,8.12-4.12a3.42,3.42,0,0,1,1.33.41c.83.54,1.16,2.18,1,5Z"/><polygon class="cls-1" points="162.3 18.9 162 11.99 138.44 12.99 138.74 19.91 139.77 19.87 139.4 33.29 136.76 33.41 137.07 40.32 139.21 40.23 138.91 51.37 162.23 50.58 162 43.66 146.03 44.2 146.14 39.93 155.25 39.53 154.94 32.62 146.33 32.99 146.7 19.57 162.3 18.9"/><path class="cls-1" d="M196,12.08l-6.92.1c.08,5.42.08,11.46.05,17.11q-1.77-4.18-3.82-8.23a26,26,0,0,0-2-3.14l-.63-.92c-4-6-8.34-5.59-10-5.15-3.71,1-6.35,4.86-6.74,9.9-.74,9.47-.28,18.9.21,28.89l0,.45,6.91-.34,0-.45c-.47-9.76-.92-19-.23-28,.2-2.55,1.26-3.64,1.6-3.73s1.23.38,2.52,2.3l.7,1a21,21,0,0,1,1.47,2.32,126.77,126.77,0,0,1,9.34,24.33,3.71,3.71,0,0,0,3.6,2.78l.48,0a3.71,3.71,0,0,0,3.28-3.65C195.93,41.22,196.17,24.93,196,12.08Z"/><polygon class="cls-1" points="78.34 68.37 78.04 61.46 54.48 62.47 54.78 69.38 55.81 69.34 55.44 82.77 52.81 82.88 53.11 89.79 55.26 89.7 54.95 100.84 78.28 100.05 78.04 93.13 62.07 93.67 62.19 89.4 71.29 89 70.99 82.09 62.38 82.46 62.74 69.04 78.34 68.37"/><path class="cls-1" d="M137.13,83.83l0-.63c-.25-3.84-.83-12.83-6-16-5.8-3.61-11.44-.29-13.82,2.81-3.1,4.06-4.1,9-4.76,13.3-.86.13-1.64.28-2.3.43l-.38.08,1.41,6.33.38-.09c-.33,2.85-.62,5.66-.89,8.31l0,.39,6.46.65,0-.39c.36-3.48.68-6.64,1.07-9.81a88.07,88.07,0,0,1,12.72,0c.2,3.6.34,7,.42,9.22v.4l6.48-.23v-.4C137.75,94.5,137.51,89,137.13,83.83Zm-9.44-11.15c.82.51,2.27,2.49,2.86,10-1.74-.13-3.68-.19-5.7-.19-1.85,0-3.77,0-5.65.16.52-3,1.34-6.24,3.23-8.71C122.67,73.62,124.87,70.93,127.69,72.68Z"/><path class="cls-1" d="M104.13,96.91c-3.44-2.8-6.34-5.28-8.74-7.43h.12a15.68,15.68,0,0,0,2.82-.58c6-1.86,10.36-7.69,10.06-13.57-.36-7-6.43-11.84-12.23-13-4.89-1-10.25-.13-16.39,2.71l2.91,6.28c.95-.44,1.86-.8,2.74-1.13l-.24,11.71-1.16,1L81.67,85c.1.11,1.19,1.33,3.37,3.47l-.27,13,6.92.14.12-5.75a5.06,5.06,0,0,1,0-.77v-.27c2.34,2.06,5.1,4.41,8.31,7,6.33,5.15,14.11,6.56,20.74,6.56a51.38,51.38,0,0,0,14.39-2.08l-1.91-6C133.21,100.34,115.25,105.94,104.13,96.91ZM92.36,69.48h.11l0-.68a13.29,13.29,0,0,1,2.31.24c3.17.66,6.56,3.32,6.72,6.62.15,2.77-2.13,5.67-5.17,6.61a9.86,9.86,0,0,1-4.21.27Z"/><path class="cls-1" d="M87.26,51.43l.87-6.22c-14-1.94-33.64-1.25-44.25-.66,0-.11,0-.23,0-.35h0L44,39.93l9.1-.4-.3-6.91L44.23,33l.36-13.42,15.6-.67L59.89,12,36.34,13l.29,6.92,1,0L37.3,33.29l-2.64.12.3,6.91,2.15-.09L37,45l-.59,0,.26,3.13h0l.25,3.13C37.21,51.29,68.25,48.8,87.26,51.43Z"/><path class="cls-1" d="M71.91,40.93c1.26-2.46,2.61-4.94,4.06-7.4,1.48,2.43,2.91,5,4.32,7.8,2.8.2,5.53.46,8.09.8l-.28-.61A116.44,116.44,0,0,0,80,27c2.37-3.59,4.88-7.07,7.48-10.37L88,16l-5.45-4.3-.49.63C79.91,15.07,77.78,18,75.73,21a94.94,94.94,0,0,0-7.31-8.31l-.56-.57-5,4.87.56.56a88.34,88.34,0,0,1,8.23,9.62,152,152,0,0,0-7.48,13.66C66.72,40.81,69.31,40.85,71.91,40.93Z"/></g></g></svg>